<svg width="161" height="99" viewBox="0 0 161 99" fill="none" xmlns="http://www.w3.org/2000/svg">
<path fill-rule="evenodd" clip-rule="evenodd" d="M84.6139 55C84.6139 55 84.6208 74.5168 84.6139 80.6668C84.8057 90.9552 87.9704 93.7052 96.1766 93.8558C106.835 93.7052 107.092 87.239 107.246 80.9951C107.407 74.4981 107.246 55 107.246 55H113C113 55 113 76.5075 113 82.9653C112.671 90.5722 109.493 99 96.2861 99C81.052 99 79.5175 89.0946 79.0243 83.7862C78.9696 77 79.0243 55 79.0243 55H84.6139Z" fill="#48924A"/>
<path fill-rule="evenodd" clip-rule="evenodd" d="M0 54.0659C0 54.0659 14.3487 53.9176 19.1283 54.0659C22.712 54.1769 27.7732 54.6024 31.911 60.5106C36.2864 66.7584 38.7493 81.6476 30.8615 91.8179C27.255 96.4678 21.8899 96.8524 18.5537 96.9437C13.9171 97.0703 0 96.9437 0 96.9437V54.0659ZM18.1886 60H5V92H17.6813C20.7262 92 26.4705 89.8549 28.6033 85.054C30.3325 81.1617 30.5694 72.0945 28.6718 67.9208C26.0489 62.1519 21.5554 60 18.1886 60Z" fill="#C53A2F"/>
<path fill-rule="evenodd" clip-rule="evenodd" d="M40 97H45V54H40V97Z" fill="#4D9CC7"/>
<path fill-rule="evenodd" clip-rule="evenodd" d="M125.423 98V62.5227L137.897 98H143.049L155.468 63V98H161V56H153.001L140.758 91.928L128.569 56H120V98H125.423Z" fill="#6C71A6"/>
<path fill-rule="evenodd" clip-rule="evenodd" d="M74 13.0001C74 20.1797 69.0752 26 63.0001 26C56.925 26 52 20.1797 52 13.0001C52 5.82026 56.925 0 63.0001 0C69.0752 0 74 5.82026 74 13.0001Z" fill="#D87234"/>
<path fill-rule="evenodd" clip-rule="evenodd" d="M62.2932 31C83.6074 30.9989 107 39.1084 107 39.1084L105.533 42.9597C105.533 42.9597 92.9807 39.0273 89.3129 38.4189C76.2717 44.1354 71.3555 53.9839 68.773 61.0813C63.9641 74.2974 64.6161 97 64.6161 97H59.7664C59.7664 97 60.9825 71.5001 52.1797 53.6624C49.8153 48.871 40.5525 40.6648 33.9504 37.7865C29.3045 38.4756 15.3041 42.6354 15.3041 42.6354L14 38.7841C14 38.7841 34.4584 30.9989 62.2932 31ZM62.7576 35.001L62.0999 35.0008C52.0925 35.0386 42 36.4761 42 36.4761C42 36.4761 49.6547 40.5252 55.5151 49.707C61.6052 59.2482 62.7671 69 62.7671 69C62.7671 69 63.6886 60.5661 69.9387 49.6017C74.9916 40.7375 83 36.898 83 36.898C83 36.898 68.9237 35 62.5001 35L62.7576 35.001Z" fill="#D77234"/>
</svg>
